<!DOCTYPE svg PUBLIC "-//W3C//DTD SVG 1.1//EN" "http://www.w3.org/Graphics/SVG/1.1/DTD/svg11.dtd">
<!-- Uploaded to: SVG Repo, www.svgrepo.com, Transformed by: SVG Repo Mixer Tools -->
<svg width="64px" height="64px" viewBox="-2.16 -2.16 28.32 28.32" fill="none" xmlns="http://www.w3.org/2000/svg">
<g id="SVGRepo_bgCarrier" stroke-width="0" transform="translate(3.24,3.24), scale(0.73)">
<rect x="-2.16" y="-2.16" width="28.32" height="28.32" rx="7.08" fill="#fecaca" strokewidth="0"/>
</g>
<g id="SVGRepo_tracerCarrier" stroke-linecap="round" stroke-linejoin="round"/>
<g id="SVGRepo_iconCarrier"> <path d="M2 12C2 7.28595 2 4.92893 3.46447 3.46447C4.92893 2 7.28595 2 12 2C16.714 2 19.0711 2 20.5355 3.46447C22 4.92893 22 7.28595 22 12C22 16.714 22 19.0711 20.5355 20.5355C19.0711 22 16.714 22 12 22C7.28595 22 4.92893 22 3.46447 20.5355C2 19.0711 2 16.714 2 12Z" stroke="#ef4444" stroke-width="1.5"/> <path d="M7 10L9.29289 12.2929C9.68342 12.6834 10.3166 12.6834 10.7071 12.2929L12.2929 10.7071C12.6834 10.3166 13.3166 10.3166 13.7071 10.7071L17 14M17 14V11.5M17 14H14.5" stroke="#ef4444" stroke-width="1.5" stroke-linecap="round" stroke-linejoin="round"/> </g>
</svg>