<!DOCTYPE svg PUBLIC "-//W3C//DTD SVG 1.1//EN" "http://www.w3.org/Graphics/SVG/1.1/DTD/svg11.dtd">
<!-- Uploaded to: SVG Repo, www.svgrepo.com, Transformed by: SVG Repo Mixer Tools -->
<svg width="800px" height="800px" viewBox="-2.4 -2.4 28.80 28.80" fill="none" xmlns="http://www.w3.org/2000/svg">
<g id="SVGRepo_bgCarrier" stroke-width="0" transform="translate(3.84,3.84), scale(0.68)">
<rect x="-2.4" y="-2.4" width="28.80" height="28.80" rx="6.912000000000001" fill="#bbf7d0" strokewidth="0"/>
</g>
<g id="SVGRepo_tracerCarrier" stroke-linecap="round" stroke-linejoin="round"/>
<g id="SVGRepo_iconCarrier"> <path d="M2 12C2 7.28595 2 4.92893 3.46447 3.46447C4.92893 2 7.28595 2 12 2C16.714 2 19.0711 2 20.5355 3.46447C22 4.92893 22 7.28595 22 12C22 16.714 22 19.0711 20.5355 20.5355C19.0711 22 16.714 22 12 22C7.28595 22 4.92893 22 3.46447 20.5355C2 19.0711 2 16.714 2 12Z" stroke="#22c55e" stroke-width="1.5"/> <path d="M7 14L9.29289 11.7071C9.68342 11.3166 10.3166 11.3166 10.7071 11.7071L12.2929 13.2929C12.6834 13.6834 13.3166 13.6834 13.7071 13.2929L17 10M17 10V12.5M17 10H14.5" stroke="#22c55e" stroke-width="1.5" stroke-linecap="round" stroke-linejoin="round"/> </g>
</svg>